<svg width="20" height="21" viewBox="0 0 20 21" fill="none" xmlns="http://www.w3.org/2000/svg">
<path d="M15.625 20H10.625C10.4592 20 10.7422 20.1172 10.625 20H5.625H0.625C0.45924 20 0 20 0 20C0 20 0 19.5408 0 19.375V4.375C0 4.20924 0 3.75 0 3.75C0 3.75 0.45924 3.75 0.625 3.75H5V3.125C5 2.2962 5.32924 1.50134 5.91529 0.915291C6.50134 0.32924 7.2962 0 8.125 0C8.9538 0 9.74866 0.32924 10.3347 0.915291C10.9208 1.50134 11.25 2.2962 11.25 3.125V3.75H15.625C15.7908 3.75 16.25 3.75 16.25 3.75C16.25 3.75 16.25 4.20924 16.25 4.375V8.75H16.875C17.7038 8.75 18.4987 9.07924 19.0847 9.66529C19.6708 10.2513 20 11.0462 20 11.875C20 12.2854 19.9192 12.6917 19.7621 13.0709C19.6051 13.45 19.3749 13.7945 19.0847 14.0847C18.7945 14.3749 18.45 14.6051 18.0709 14.7621C17.6917 14.9192 17.2854 15 16.875 15H16.25V19.375C16.25 19.5408 16.25 20 16.25 20C16.25 20 15.7908 20 15.625 20ZM11.25 18.75H15V14.375C15 14.2092 15 13.75 15 13.75C15 13.75 15.4592 13.75 15.625 13.75H16.875C17.3723 13.75 17.8492 13.5525 18.2008 13.2008C18.5525 12.8492 18.75 12.3723 18.75 11.875C18.75 11.3777 18.5525 10.9008 18.2008 10.5492C17.8492 10.1975 17.3723 10 16.875 10H15.625C15.4592 10 15 10 15 10C15 10 15 9.54076 15 9.375V5H10.625C10.4592 5 10 5 10 5C10 5 10 4.54076 10 4.375V3.125C10 2.62772 9.80246 2.15081 9.45083 1.79918C9.0992 1.44754 8.62228 1.25 8.125 1.25C7.62772 1.25 7.15081 1.44754 6.79917 1.79918C6.44754 2.15081 6.25 2.62772 6.25 3.125V4.375C6.25 4.54076 6.25 5 6.25 5C6.25 5 5.79076 5 5.625 5H1.25V18.75H5H11.25Z" fill="white"/>
<path d="M8.33247 8.88867V14.4442M11.1102 11.6664H5.55469" stroke="white" stroke-width="1.44655" stroke-linecap="round"/>
</svg>
